/* XPM */
static char * collectible_xpm[] = {
"32 32 13 1",
" 	c #B55945",
".	c #EB9661",
"+	c #D07753",
"@	c #211F30",
"#	c #A4CC42",
"$	c #72A11D",
"%	c #28860F",
"&	c #CC3048",
"*	c #9C1B4D",
"=	c #F18B72",
"-	c #E44A4A",
";	c #F7EC8A",
">	c #E1CA33",
" ................ +.....+   +   ",
"+................+........ ...+ ",
"+................ ........+....+",
"+................ ........ ....+",
" ................ ..............",
" ................+........+....+",
"+................+........++..+ ",
".+..............+..........++...",
".+..............+...............",
".+..........@@@+@@@........+....",
".++.........@#$@#$@........+....",
"..+..........@%@%@......... +...",
".++.........@@&*&@@.......   +..",
"+ ++.......@=---===@....+++ ++++",
"++........@=-;---;-=@   +.......",
".+........@--&---&--@ +.........",
".  ..+....@----;----@+..........",
"..  +++   @&;--&--;&@...........",
".. +...+ +.@&-----&@+...........",
"..+....++..@&>--->&@+...........",
"........+...@&&&&&@.+...........",
"...+.........@&&&@.. ...........",
"...+..........@@@... ...........",
"...+++.............++...........",
"... +..............+............",
"...+............... ............",
".. +............... ............",
".. ...............+ ............",
".++...............++............",
". ................ .............",
"  ...............+ .............",
" +...............      +.......+"};
