/* XPM */
static char * enemy_xpm[] = {
"32 32 48 1",
" 	c #B55945",
".	c #EB9661",
"+	c #D07753",
"@	c #212121",
"#	c #FDD5B5",
"$	c #D78C77",
"%	c #E6B4A0",
"&	c #FBD2B3",
"*	c #FFFFFF",
"=	c #000000",
"-	c #2C2227",
";	c #FDD7B6",
">	c #FED8B7",
",	c #EB9486",
"'	c #FEF5E6",
")	c #FDF4E4",
"!	c #FBD3B1",
"~	c #FEF4E8",
"{	c #EAC6C2",
"]	c #E3BAAD",
"^	c #DFB2AD",
"/	c #F1B29E",
"(	c #FEF7EC",
"_	c #EDAF97",
":	c #FDF6E9",
"<	c #FDF7E7",
"[	c #FAF3E5",
"}	c #FBF4E6",
"|	c #FAF6E8",
"1	c #FDF9E8",
"2	c #FFF8E4",
"3	c #FBF4E8",
"4	c #FDF8EA",
"5	c #FDF6EB",
"6	c #F9F4EA",
"7	c #F9F5E6",
"8	c #FAF5EC",
"9	c #FAF6EA",
"0	c #FBF2E7",
"a	c #FBF8F0",
"b	c #FEF9EF",
"c	c #FDF8EE",
"d	c #FEF8E6",
"e	c #FEF7EA",
"f	c #FCF6ED",
"g	c #FEF8F3",
"h	c #FDF3E6",
"i	c #FEF7EE",
" ................ +.....+   +   ",
"+................+........ ...+ ",
"+................ ........+....+",
"+....@@..........@@....... ....+",
" ...@#@@@@@@@@@@@#@.............",
" ...@$#@##%#%##@#$$@......+....+",
"+...@$#@##%#%##@#$$@......++..+ ",
".+..@$####%#%#####$@.......++...",
".+..@#######%#####$@............",
".+..@####&&########@.......+....",
".++@###############@.......+....",
"..+@###*=#####*=###@....... +...",
".++-###==##=##==;>#@......   +..",
"+ +@#,,'))='=)'',,!@....+++ ++++",
"++..@,,')))))''',,'@    +.......",
".+..@'''''''''''''@+  +.........",
".  ..@'~'''''''''@.+ +..........",
"..  ++@{''''''']@... ...........",
".. +..@'^^^^^^^'/@..+...........",
"..+..@''''''''('_%@.+...........",
".....@'''::::''''%@.+...........",
"...+.@'''''''''<'%@. ........@..",
"...+.@'''[@''''%''@@ ......@@%@.",
"...++@'''}@'''|%''11@.....@2%%@.",
"..@@@@%''3@'45@@@@%1@@@@@@2%%@..",
".@6777@''8@'9@0abc%1@122d2%@@...",
".@%e77@''f@'4@%'44%%1%%%%%@.....",
".@%%77@g''@'4@%%hi%%%%@@@@......",
".+@%%7@%%%@':@%%%%%@@@..........",
". ................ .............",
"  ...............+ .............",
" +...............      +.......+"};
