/* XPM */
static char * player_xpm[] = {
"32 32 23 1",
" 	c #B55945",
".	c #EB9661",
"+	c #1B1B1B",
"@	c #C64524",
"#	c #8E251D",
"$	c #D07753",
"%	c #657392",
"&	c #92A1B9",
"*	c #C7CFDD",
"=	c #131313",
"-	c #3D3D3D",
";	c #BF6F4A",
">	c #E69C69",
",	c #F6CA9F",
"'	c #424C6E",
")	c #391F21",
"!	c #5D2C28",
"~	c #2A2F4E",
"{	c #571C27",
"]	c #ED7614",
"^	c #FFA214",
"/	c #FFC825",
"(	c #FFFFFF",
" .........+@@##+. $.....$   $   ",
"$........+@@@@##++++...... ...$ ",
"$........+@@@##%&&**+.....$....$",
"$.......+@@@##%&***%&+.... ....$",
" .......+@@##%&***%*%&+.........",
" .......+@@#%&**&&***%&+..$....$",
"$......+@@@#%%&%**=*=&%+..$$..$ ",
".$.....+@@##%&%*=*=*=&%+...$$...",
".$......+@#+%&%*-*-*-&+.........",
".$......+##++%%%;;>>;+.....$....",
".$$.....+#+..+%&&,,>>&+....$....",
"..$.....+#+..+#%&,,>%&+.... $...",
".$$....+##+.+#####@@@'+..++++$..",
"$ $$...+#+.+***&###@&''++%&&&+$$",
"$$......+.+****&%&&&*&'+%))!!&+.",
".$.......+&***&%&&***&~%)))!!!&+",
".  ..$...+%&&&%'%&&**&'')))!!!&+",
"..  $$$  +*%%%{'%%&&&''''%%)!!&+",
".. $...$+%*&&{{''%%&&+''''%)!!&+",
"..$....+*%%&{{{'''%%%++%)'')!!&+",
".+++...+**&{{{{#######+%)))))!&+",
"+@@@++++@*&{{{####@@@@@+%))))&+.",
"+@@@@@@@]%%{^^###@@@@@@@%))))%+.",
"+@@@@@@@]&&&*####@@#%%#@+%))%+..",
".+@@@####&&^***##@##%%%##+%%+...",
"..++######/*((***&#++%%%#&++....",
".. $++####/##(((***+++%'%&+.....",
".. ...+++####%*(((***+%%&&+.....",
".$$......++++**&+(((**+%%+......",
". ..........+&*&+++(((+%'+......",
"  ..........+&&&+$ ++++'%&+.....",
" $..........+%&+.     +%%%&+...$"};
