/* XPM */
static char * wall_xpm[] = {
"32 32 5 1",
" 	c #2F2E2F",
".	c #85578E",
"+	c #BE9BB0",
"@	c #564064",
"#	c #3E2F5A",
"                                ",
".++++++++++. .++++++++++++++. .+",
"+..........+ +.....@...@....+ +.",
"..@@@@.@@@.. ..@@.@@@.@@@@@@. .@",
".@@@@@@@@##. .##@@@@@@@@@@#@@ @@",
"@.@@######## ######@@######## ##",
"#@@########   ##############   #",
"                                ",
"@...................   .........",
"..............@@..... ......@@..",
"..@@@.@@.@@@.@@@@.@.. ..@.@@@@@.",
".@.@@@@@@@#@@@###@@#. .#@@@@##@@",
".@@@@@#@@###@@@@@@### ###@@##@@@",
"@.@@@##########@@#### ##########",
"#@@#################   #########",
"                                ",
"@........   ............   .....",
"......@... ......@....... ...@..",
"...@.@@@.. ..@@.@@@@.@@.. ..@@@@",
"..@@#@@@@. .@@@@@#@@#@@@. .@@#@@",
".@.@@#@@@# #@@@@##@@@#@@# #@@@#@",
".@@@@##@## ##@###@@#@@@## ##@@@@",
"@.@@###### ##########@### ###@##",
"#@#######   ############   #####",
"                                ",
"@..................   ..........",
"...@........@...@... ........@..",
"....@...@@.@@@.@@@.. ..@@.@@@@@@",
"..@@.#.#@@@@@@#@@@#. .#@@@@@@#@#",
".@@@@####@##@@@@@### ###@@@@##@@",
"@.@@###########@#### ####@######",
"#@#################   ##########"};
